<svg width="22" height="22" viewBox="0 0 22 22" fill="none" xmlns="http://www.w3.org/2000/svg">
<g id="Icons/Box/bx-check-circle">
<path id="Vector" d="M11 1.83331C5.94554 1.83331 1.83337 5.94548 1.83337 11C1.83337 16.0545 5.94554 20.1666 11 20.1666C16.0545 20.1666 20.1667 16.0545 20.1667 11C20.1667 5.94548 16.0545 1.83331 11 1.83331ZM11 18.3333C6.95662 18.3333 3.66671 15.0434 3.66671 11C3.66671 6.95656 6.95662 3.66665 11 3.66665C15.0435 3.66665 18.3334 6.95656 18.3334 11C18.3334 15.0434 15.0435 18.3333 11 18.3333Z" fill="#0081C3"/>
<path id="Vector_2" d="M9.16493 12.4547L7.05752 10.351L5.76318 11.649L9.16677 15.0452L15.3139 8.89803L14.0178 7.60187L9.16493 12.4547Z" fill="#0081C3"/>
</g>
</svg>
