<svg width="24" height="24" viewBox="0 0 24 24" fill="none" xmlns="http://www.w3.org/2000/svg">
<g id="004-video-calling-app">
<path id="Vector" d="M4.87498 9.5156C4.87498 8.99782 5.2947 8.5781 5.81248 8.5781C7.05607 8.62751 7.05569 10.4039 5.81248 10.4531C5.2947 10.4531 4.87498 10.0334 4.87498 9.5156ZM11.625 10.4531C12.1427 10.4531 12.5625 10.0334 12.5625 9.5156C12.5131 8.27201 10.7366 8.27239 10.6875 9.5156C10.6875 10.0334 11.1072 10.4531 11.625 10.4531ZM12.4218 13.0336C12.1407 13.0336 11.8885 13.1574 11.7167 13.3533C10.3172 14.8435 7.38588 15.0766 5.68779 13.4131C5.51731 13.1792 5.24126 13.0273 4.92968 13.0273C4.12831 13.0236 3.69814 13.9853 4.22192 14.5795C6.32665 16.9061 10.621 17.1794 13.0686 14.6498C13.6755 14.078 13.2665 13.0316 12.4218 13.0336ZM22.1249 10.7343V8.43748C22.1249 8.04645 21.8538 7.86903 21.7372 7.8109C21.6231 7.754 21.3289 7.64755 21.0236 7.8635L17.5312 10.8706V13.0754L21.0237 16.0824C21.329 16.2983 21.6232 16.1919 21.7373 16.135C21.8538 16.0769 22.125 15.8995 22.125 15.5085C22.1743 14.265 23.9507 14.2651 24 15.5085C24 16.4913 23.4536 17.3743 22.5741 17.8129C21.6991 18.2499 20.6629 18.1588 19.8756 17.5655L19.8279 17.5271L17.5312 15.5496V17.0156C17.5312 19.0833 15.8489 20.7656 13.7812 20.7656H3.74999C1.68224 20.7656 0 19.0833 0 17.0156V6.98436C0 4.91662 1.68224 3.23438 3.74999 3.23438H13.7812C15.8489 3.23438 17.5312 4.91662 17.5312 6.98436V8.39632L19.851 6.39894L19.8755 6.38052C21.5447 5.09929 24.0193 6.33416 23.9999 8.43753V10.7344C23.9504 11.9782 22.174 11.9773 22.1249 10.7343ZM15.6562 6.98436C15.6562 5.95049 14.8151 5.10937 13.7812 5.10937H3.74999C2.71611 5.10937 1.87499 5.95049 1.87499 6.98436V17.0156C1.87499 18.0494 2.71611 18.8906 3.74999 18.8906H13.7812C14.8151 18.8906 15.6562 18.0494 15.6562 17.0156V6.98436Z" fill="white"/>
</g>
</svg>
