<svg width="24" height="24" viewBox="0 0 24 24" fill="none" xmlns="http://www.w3.org/2000/svg">
<g id="fi_1617465">
<path id="Vector" d="M20.6241 3.37637C19.6082 2.35988 18.2568 1.80005 16.8194 1.80005C15.3818 1.80005 14.0308 2.35988 13.0145 3.37637L8.19537 8.19513L3.37612 13.0145C2.35991 14.031 1.80005 15.3824 1.80005 16.8194C1.80005 18.2565 2.35991 19.6079 3.37612 20.6237C4.39201 21.6402 5.74349 22.2 7.18087 22.2C8.61826 22.2 9.96942 21.6402 10.9856 20.6237L15.8049 15.805L20.6241 10.9856C21.6403 9.96911 22.2 8.61769 22.2 7.18067C22.2 5.74365 21.6403 4.39223 20.6241 3.37637ZM9.97113 19.6093C9.22559 20.3546 8.23459 20.7654 7.18087 20.7654C6.12668 20.7654 5.136 20.3548 4.39061 19.6093C3.64523 18.8638 3.23495 17.8733 3.23495 16.8196C3.23495 15.7659 3.64554 14.7745 4.39061 14.0291L8.70262 9.71697L14.2831 15.2979L9.97113 19.6093ZM19.6096 9.97113L15.2976 14.2833L9.71712 8.70236L14.0291 4.39083C14.7745 3.64547 15.7655 3.23474 16.8194 3.23474C17.8734 3.23474 18.8641 3.64531 19.6095 4.39083C20.3549 5.13634 20.7652 6.12683 20.7652 7.18051C20.7652 8.23419 20.3547 9.22562 19.6096 9.97113Z" fill="white"/>
<path id="Vector_2" d="M18.5489 6.59995C18.3411 6.59995 18.1368 6.49627 18.0105 6.30412C17.7056 5.83875 17.2026 5.56153 16.6645 5.56153C16.2292 5.56153 15.8204 5.73831 15.5123 6.06014C15.2577 6.32598 14.8453 6.32598 14.5909 6.06014C14.3364 5.79414 14.3364 5.36332 14.5909 5.09748C15.1449 4.51838 15.8812 4.19995 16.6645 4.19995C17.6328 4.19995 18.538 4.69856 19.086 5.53435C19.2892 5.84465 19.2136 6.26823 18.9164 6.48106C18.8041 6.5614 18.6758 6.59995 18.5489 6.59995Z" fill="white"/>
</g>
</svg>
