<svg width="24" height="24" viewBox="0 0 24 24" fill="none" xmlns="http://www.w3.org/2000/svg">
<g id="fi_4406229" clip-path="url(#clip0_2619_233)">
<g id="Group">
<path id="Vector" d="M11.5028 12.7835C11.7774 13.0581 12.2226 13.0581 12.4972 12.7835L18.0198 7.26075C18.8232 6.45741 19.2656 5.38931 19.2656 4.25325C19.2656 3.11719 18.8232 2.04909 18.0199 1.24575C17.2165 0.442406 16.1484 0 15.0124 0C13.8763 0 12.8083 0.442406 12.0049 1.24575L12 1.25062L11.9951 1.24575C11.1918 0.442406 10.1237 0 8.98762 0C7.85152 0 6.78347 0.442406 5.98012 1.24575C5.17678 2.04909 4.73438 3.11719 4.73438 4.25325C4.73438 5.38931 5.17678 6.45741 5.98012 7.26075L11.5028 12.7835ZM6.97448 2.24011C7.51223 1.70241 8.22717 1.40625 8.98762 1.40625C9.74808 1.40625 10.463 1.70241 11.0007 2.24016L11.5028 2.74219C11.7774 3.01678 12.2226 3.01673 12.4972 2.74219L12.9992 2.24011C13.537 1.70241 14.2519 1.40625 15.0124 1.40625C15.7729 1.40625 16.4878 1.70241 17.0255 2.24011C17.5633 2.77786 17.8594 3.4928 17.8594 4.25325C17.8594 5.0137 17.5633 5.72864 17.0255 6.26639L12 11.2919L6.97448 6.26634C6.43673 5.72864 6.14062 5.0137 6.14062 4.25325C6.14062 3.4928 6.43673 2.77786 6.97448 2.24011Z" fill="white"/>
<path id="Vector_2" d="M23.8551 13.591C23.5607 11.3916 22.7076 9.76884 22.6714 9.70088C22.4305 9.24792 21.8012 9.19716 21.4908 9.60567C20.2718 11.2099 18.9227 11.7658 17.3605 12.4094C15.944 12.993 14.3386 13.6545 12.7057 15.2081L12.6932 15.2204C12.4392 15.4743 12.2078 15.7428 11.9996 16.0239C11.792 15.7433 11.5614 15.4749 11.3068 15.2204L11.2943 15.2081C9.66133 13.6545 8.05595 12.993 6.63948 12.4094C5.07733 11.7658 3.72817 11.2099 2.50919 9.60567L2.50914 9.60563C2.19873 9.19716 1.56953 9.24788 1.32859 9.70083L1.32855 9.70088C1.2924 9.76889 0.43928 11.3917 0.144905 13.591C-0.252923 16.5633 0.564952 19.1625 2.51017 21.1077C5.06083 23.6583 9.00512 24 10.9348 24C11.4678 24 11.8466 23.974 12.0004 23.9612C12.1527 23.9737 12.5264 23.999 13.0525 23.999C14.9782 23.9989 18.9381 23.6595 21.4899 21.1077C23.4351 19.1625 24.253 16.5633 23.8551 13.591ZM11.9115 20.5964C11.8787 21.1117 11.791 21.5769 11.6952 21.9559L7.2077 17.4684C6.93316 17.1938 6.48794 17.1938 6.21334 17.4684C5.93875 17.743 5.93875 18.1882 6.21334 18.4628L10.3254 22.5749C8.47581 22.4977 5.44398 22.0528 3.50448 20.1133C1.86723 18.4761 1.204 16.3585 1.5332 13.8195C1.66183 12.8274 1.92437 11.9565 2.15317 11.3368C3.4074 12.5986 4.77442 13.1619 6.10384 13.7097C7.46795 14.2717 8.87842 14.8528 10.3187 16.2209C11.4859 17.3914 12.0218 18.8635 11.9115 20.5964ZM20.4955 20.1133C18.5558 22.053 15.5241 22.4978 13.6746 22.5749L17.7867 18.4628C18.0613 18.1882 18.0613 17.743 17.7867 17.4684C17.5121 17.1938 17.0669 17.1938 16.7923 17.4684L13.2918 20.969C13.2991 20.8938 13.3058 20.8179 13.3112 20.7407C13.3958 19.5368 13.2154 18.4084 12.7834 17.3916C13.0232 16.9726 13.3237 16.5796 13.6815 16.2207C15.1217 14.8526 16.5321 14.2716 17.8962 13.7096C19.226 13.1617 20.5933 12.5984 21.8478 11.3357C22.0727 11.9445 22.3302 12.7979 22.4613 13.7775C22.8036 16.335 22.1422 18.4666 20.4955 20.1133Z" fill="white"/>
</g>
</g>
<defs>
<clipPath id="clip0_2619_233">
<rect width="24" height="24" fill="white"/>
</clipPath>
</defs>
</svg>
