<svg width="24" height="24" viewBox="0 0 24 24" fill="none" xmlns="http://www.w3.org/2000/svg">
<g id="fi_2852574" clip-path="url(#clip0_2619_167)">
<path id="Vector" d="M17.436 17.807C17.7978 18.1768 17.7913 18.7697 17.4216 19.1315C16.1376 20.388 14.8944 21.4973 13.9212 22.2551C13.3591 22.6927 12.6853 22.9116 12.0117 22.9116C11.338 22.9116 10.6644 22.6928 10.1022 22.2551C9.45301 21.7495 8.12882 20.6716 6.55498 19.1315C6.18526 18.7697 6.17885 18.1768 6.5406 17.807C6.90241 17.4373 7.49536 17.4309 7.86507 17.7927C8.9665 18.8704 10.2013 19.9582 11.253 20.777C11.6997 21.1249 12.3236 21.1249 12.7703 20.777C13.6897 20.0613 14.8763 19.0014 16.1115 17.7927C16.4812 17.4309 17.0742 17.4373 17.436 17.807ZM12.4566 17.1508C12.9739 17.1508 13.3932 16.7315 13.3932 16.2142V15.2776C13.3932 14.7604 12.9739 14.3411 12.4566 14.3411H11.52C11.0027 14.3411 10.5834 14.7604 10.5834 15.2776V16.2142C10.5834 16.7315 11.0027 17.1508 11.52 17.1508H12.4566ZM23.7016 18.8762C24.0677 19.2416 24.0683 19.8346 23.7029 20.2008C23.3375 20.5668 22.7445 20.5674 22.3784 20.2021L12.5528 10.3958C12.202 10.0978 11.6873 10.0988 11.3377 10.3984L1.601 20.1992C1.41795 20.3835 1.17729 20.4757 0.936544 20.4757C0.697855 20.4757 0.459166 20.385 0.276485 20.2035C-0.0904691 19.839 -0.0923891 19.246 0.27213 18.879L3.42983 15.7005C1.169 12.8618 0.0234197 10.3536 0.0234197 8.23771C0.0234197 5.88075 0.660626 4.05061 1.91734 2.79816C3.03974 1.67965 4.61948 1.08838 6.48586 1.08838C9.11345 1.08838 10.7214 2.30842 11.6076 3.33192C11.7664 3.5154 11.9075 3.69836 12.033 3.87645C12.1638 3.69616 12.3104 3.51067 12.4749 3.32462C13.3769 2.30444 14.9874 1.08838 17.5376 1.08838C19.4039 1.08838 20.9837 1.6796 22.1061 2.79816C23.3628 4.05066 24 5.88079 24 8.23771C24 10.3577 22.8653 12.8084 20.5361 15.7169L23.7016 18.8762ZM13.8539 9.0479L16.5307 11.7194V9.65814C16.5307 9.14086 16.95 8.72155 17.4673 8.72155C17.9846 8.72155 18.4039 9.14086 18.4039 9.65814V13.5889L19.2019 14.3853C21.143 11.9257 22.1268 9.85959 22.1268 8.23766C22.1268 3.87687 19.6312 2.9615 17.5376 2.9615C14.1325 2.9615 13.0094 5.85621 12.9064 6.14346C12.8206 6.57213 12.4422 6.89516 11.9883 6.89516C11.5216 6.89516 11.1357 6.55345 11.0645 6.10679C10.9403 5.72649 9.92818 2.9615 6.48586 2.9615C4.39226 2.9615 1.89659 3.87687 1.89659 8.23766C1.89659 9.86006 2.88338 11.9656 4.75964 14.3619L10.0309 9.05591C10.0434 9.04327 10.0563 9.031 10.0696 9.0191C11.1353 8.06224 12.7454 8.05892 13.8151 9.01124C13.8284 9.02313 13.8413 9.03535 13.8539 9.0479Z" fill="white"/>
</g>
<defs>
<clipPath id="clip0_2619_167">
<rect width="24" height="24" fill="white"/>
</clipPath>
</defs>
</svg>
