<svg width="24" height="24" viewBox="0 0 24 24" fill="none" xmlns="http://www.w3.org/2000/svg">
<g id="003-siren" clip-path="url(#clip0_2619_174)">
<path id="Vector" d="M21.3591 11.197C20.8083 11.197 20.3621 11.6433 20.3621 12.1941C20.3621 12.7448 20.8083 13.1911 21.3591 13.1911H23.003C23.5538 13.1911 24 12.7448 24 12.1941C24 11.6433 23.5538 11.197 23.003 11.197H21.3591Z" fill="white"/>
<path id="Vector_2" d="M3.00516 20.1417C3.00422 20.146 3.00329 20.1506 3.00282 20.1549C2.93204 20.5406 2.91094 20.9105 2.93579 21.3235C2.97047 21.8531 3.07125 22.2277 3.14391 22.4635C3.14532 22.4686 3.14719 22.4738 3.1486 22.4789C3.36657 23.1427 4.00641 23.7113 4.70579 23.8613C5.15485 23.9569 11.0498 23.9977 12.0005 23.9981C12.9502 23.9981 18.8456 23.9564 19.2961 23.8608C19.9936 23.7108 20.633 23.1427 20.8514 22.4789C20.8533 22.4738 20.8547 22.4686 20.8566 22.4635C20.9292 22.2277 21.03 21.8527 21.0652 21.3192C21.09 20.91 21.0684 20.5402 20.9981 20.1549C20.9972 20.1506 20.9967 20.1464 20.9958 20.1417C20.8589 19.4541 20.2566 18.7969 19.5595 18.5775C19.5159 18.5639 19.4241 18.5353 18.9159 18.488C18.9881 16.523 19.0505 13.6425 19.0364 11.9499C19.0364 11.948 19.0364 11.9456 19.0364 11.9433C19.0083 10.1288 18.2428 8.41455 16.8816 7.11611C15.5602 5.85564 13.7813 5.1333 12.0014 5.1333H12.0005C10.2206 5.1333 8.44172 5.85611 7.12032 7.11611C5.75907 8.41455 4.9936 10.1288 4.96547 11.9433V11.9499C4.95141 13.642 5.01329 16.5225 5.08594 18.488C4.57688 18.5358 4.48407 18.5644 4.43907 18.5785C3.74578 18.7964 3.14297 19.4541 3.00657 20.1413L3.00516 20.1417ZM6.74579 11.9681C6.79032 9.2283 9.19547 6.91502 12 6.91502C14.8045 6.91502 17.2097 9.22877 17.2538 11.9686C17.2673 13.621 17.2073 16.4222 17.137 18.3605C16.9608 18.3497 16.7714 18.3389 16.5675 18.3272C14.797 18.2274 13.1513 18.1702 12.0427 18.1702H11.9578C10.8469 18.1702 9.2011 18.2274 7.43157 18.3272C7.22766 18.3389 7.03829 18.3497 6.86204 18.3605C6.79125 16.4217 6.73125 13.62 6.74532 11.9681H6.74579ZM4.75172 20.4924C4.77375 20.43 4.87125 20.3292 4.94157 20.2908C5.58422 20.2074 9.56672 19.951 11.9573 19.951H12.045C14.4314 19.951 18.4106 20.2069 19.058 20.2903C19.1302 20.3297 19.2272 20.4296 19.2488 20.4919C19.2759 20.6438 19.3073 20.8786 19.2872 21.2063C19.2656 21.5339 19.2084 21.7603 19.1592 21.9216C19.1316 21.983 19.0181 22.0814 18.9455 22.111C18.3891 22.1503 14.5064 22.2146 12.0009 22.216C9.49641 22.215 5.6161 22.1508 5.05641 22.111C4.98188 22.081 4.86797 21.9821 4.84219 21.9235C4.79297 21.7617 4.73532 21.5353 4.71375 21.21C4.6936 20.8791 4.725 20.6433 4.75219 20.4914L4.75172 20.4924Z" fill="white"/>
<path id="Vector_3" d="M12 3.63797C12.5507 3.63797 12.997 3.19172 12.997 2.64094V0.997031C12.997 0.44625 12.5507 0 12 0C11.4492 0 11.0029 0.44625 11.0029 0.997031V2.64094C11.0029 3.19172 11.4492 3.63797 12 3.63797Z" fill="white"/>
<path id="Vector_4" d="M5.94985 6.14395C6.33938 5.75442 6.33938 5.12301 5.94985 4.73395L4.78735 3.57145C4.59282 3.37692 4.33735 3.27942 4.08235 3.27942C3.82735 3.27942 3.57188 3.37692 3.37735 3.57145C2.98782 3.96098 2.98782 4.59239 3.37735 4.98145L4.53985 6.14395C4.73438 6.33848 4.98985 6.43598 5.24485 6.43598C5.49985 6.43598 5.75532 6.33848 5.94985 6.14395Z" fill="white"/>
<path id="Vector_5" d="M19.4602 6.14432L20.6227 4.98182C21.0122 4.59229 21.0122 3.96088 20.6227 3.57182C20.4282 3.37728 20.1727 3.27979 19.9177 3.27979C19.6627 3.27979 19.4072 3.37728 19.2127 3.57182L18.0502 4.73432C17.6607 5.12385 17.6607 5.75525 18.0502 6.14432C18.2447 6.33885 18.5002 6.43635 18.7552 6.43635C19.0102 6.43635 19.2657 6.33885 19.4602 6.14432Z" fill="white"/>
<path id="Vector_6" d="M0.997031 13.1916H2.64094C3.19172 13.1916 3.63797 12.7453 3.63797 12.1945C3.63797 11.6438 3.19172 11.1975 2.64094 11.1975H0.997031C0.446719 11.197 0 11.6438 0 12.1945C0 12.7453 0.44625 13.1916 0.997031 13.1916Z" fill="white"/>
<path id="Vector_7" d="M12.0001 16.8877C12.5809 16.8877 13.052 16.4166 13.052 15.8358C13.052 15.255 12.5809 14.7839 12.0001 14.7839C11.4193 14.7839 10.9482 15.255 10.9482 15.8358C10.9482 16.4166 11.4193 16.8877 12.0001 16.8877Z" fill="white"/>
<path id="Vector_8" d="M12 14.1253C12.4917 14.1253 12.8906 13.7264 12.8906 13.2347V9.50342C12.8906 9.0117 12.4917 8.61279 12 8.61279C11.5083 8.61279 11.1094 9.0117 11.1094 9.50342V13.2347C11.1094 13.7264 11.5083 14.1253 12 14.1253Z" fill="white"/>
</g>
<defs>
<clipPath id="clip0_2619_174">
<rect width="24" height="24" fill="white"/>
</clipPath>
</defs>
</svg>
