<svg width="24" height="24" viewBox="0 0 24 24" fill="none" xmlns="http://www.w3.org/2000/svg">
<g id="fi_2259851" clip-path="url(#clip0_2619_223)">
<path id="Vector" d="M22.4739 7.87126C21.7451 6.86639 20.3427 5.51927 19.6428 4.92011C15.7582 1.76547 11.43 1.61935 6.90958 3.71925C4.45992 4.11119 2.74011 5.34781 1.79464 7.39713C-0.304976 9.82778 -0.728759 12.3428 1.41875 14.8172C2.48764 16.738 4.26851 17.0573 6.31887 16.1502C7.15804 17.6941 8.6978 18.5528 11.3494 17.9761C12.0156 18.8198 13.2227 18.9332 13.9624 18.9432L16.2077 21.4339C16.3509 21.5927 16.5546 21.6834 16.7684 21.6834H18.3499C18.8369 21.6834 19.1976 21.2279 19.0841 20.7529L18.8792 19.8958C22.6643 19.1001 24.6848 15.7065 23.0077 13.7368C24.5566 11.8656 24.2268 9.59862 22.4739 7.87126ZM21.4065 13.2248C21.0267 13.5623 21.0817 14.1745 21.5207 14.437C23.1358 15.4025 21.1343 18.206 17.8811 18.5233C17.4251 18.5678 17.1139 19.0053 17.2202 19.4502L17.3931 20.1735H17.1042L14.8581 17.682C14.7149 17.5231 14.5111 17.4325 14.2974 17.4325C13.6921 17.4325 12.6362 17.438 12.443 16.8644C12.3153 16.4849 11.9135 16.2714 11.5273 16.3774C9.9441 16.813 8.44741 16.8897 7.65646 15.4515C8.85076 14.6557 9.36065 13.4567 8.93187 12.3406C8.78235 11.9514 8.34573 11.757 7.95644 11.9066C7.56724 12.0562 7.37295 12.4929 7.52247 12.882C7.77324 13.5349 6.98153 14.1168 6.48929 14.3866C6.38044 14.4462 4.73419 15.3968 3.80868 15.0638C3.37937 14.9094 2.82008 14.149 2.60602 13.8812C1.61403 12.763 1.21266 11.6018 1.75657 10.2223C2.27835 11.5408 3.46213 12.33 4.82855 12.33C5.24545 12.33 5.58345 11.9921 5.58345 11.5751C5.58345 11.1582 5.24545 10.8202 4.82855 10.8202C3.36055 10.8202 2.7018 9.27297 3.13729 8.09245C3.86794 6.45888 5.19312 5.51384 7.18625 5.20452C7.89912 5.2224 8.08539 5.57994 8.36097 5.97518C8.59797 6.31559 9.06808 6.40274 9.41185 6.16339C9.75401 5.92517 9.83827 5.45468 9.60005 5.11256C9.47502 4.93304 9.33418 4.70506 9.09535 4.46311C10.9142 3.84282 12.6274 3.67518 14.2455 3.96318C13.2288 4.99253 12.7991 6.38816 12.996 8.07678C13.0408 8.46122 13.367 8.7443 13.7449 8.7443C14.1983 8.7443 14.5479 8.34963 14.4956 7.90188C14.3106 6.31526 14.7962 5.21858 16.0198 4.47642C16.8474 4.81249 17.6489 5.2793 18.4261 5.87662C18.3358 6.35145 18.09 6.67153 17.6564 6.8914C17.2846 7.07993 17.136 7.53424 17.3245 7.90608C17.514 8.2798 17.9691 8.42569 18.3392 8.238C18.9354 7.93571 19.3756 7.49744 19.6485 6.9432C20.2152 7.49872 20.7685 8.12854 21.3091 8.83324C21.4569 9.02593 22.5165 9.88841 22.4886 11.1829C22.4729 11.9035 22.0987 12.6095 21.4065 13.2248Z" fill="white"/>
<path id="Vector_2" d="M16.9208 13.1192C17.5043 11.546 17.2702 9.77778 15.8135 9.00485C15.4451 8.80938 14.9882 8.9496 14.7928 9.3179C14.5974 9.6862 14.7376 10.1432 15.1059 10.3386C15.8219 10.7185 15.792 11.7126 15.5389 12.4948C13.8903 12.0114 12.4287 12.4634 11.768 13.6836C11.5694 14.0503 11.7057 14.5084 12.0724 14.7069C12.439 14.9053 12.8971 14.7691 13.0957 14.4025C13.9115 12.8955 17.4942 14.5737 17.2297 16.0607C17.1476 16.5217 17.5016 16.948 17.9737 16.948C18.3327 16.948 18.651 16.691 18.7161 16.3253C18.9468 15.0291 18.0904 13.8578 16.9208 13.1192Z" fill="white"/>
<path id="Vector_3" d="M12.5034 10.8088C12.8829 10.6364 13.0509 10.1889 12.8785 9.80932C12.7062 9.4297 12.2587 9.26168 11.8791 9.43408C11.5631 9.57761 11.1774 9.28466 10.9034 8.88013C11.2858 8.34523 11.4058 7.71847 11.2099 7.10063C11.0839 6.70318 10.6597 6.48331 10.2621 6.60919C9.86474 6.73526 9.64473 7.15956 9.77075 7.55697C9.92145 8.03218 9.17061 8.42681 9.08455 8.47022C8.43094 8.79987 7.74214 8.76968 7.56295 8.52245C7.31826 8.18486 6.84626 8.10966 6.50868 8.35424C6.1711 8.59897 6.09584 9.07093 6.34052 9.40851C7.07934 10.4278 8.59844 10.3913 9.73004 9.83503C10.4161 10.7721 11.4727 11.2767 12.5034 10.8088Z" fill="white"/>
<path id="Vector_4" d="M20.2693 10.2914L19.0747 10.5238C18.6655 10.6035 18.3982 10.9998 18.4779 11.409C18.5578 11.8195 18.9552 12.0853 19.3631 12.0058L20.5576 11.7734C20.9669 11.6938 21.2341 11.2975 21.1544 10.8882C21.0748 10.479 20.6783 10.2116 20.2693 10.2914Z" fill="white"/>
</g>
<defs>
<clipPath id="clip0_2619_223">
<rect width="24" height="24" fill="white"/>
</clipPath>
</defs>
</svg>
