<svg width="18" height="18" viewBox="0 0 18 18" fill="none" xmlns="http://www.w3.org/2000/svg">
<g id="Group">
<path id="Vector" d="M17.25 9C17.25 13.5563 13.5563 17.25 9 17.25C4.44365 17.25 0.75 13.5563 0.75 9C0.75 4.44365 4.44365 0.75 9 0.75C13.5563 0.75 17.25 4.44365 17.25 9Z" stroke="#FD7400" stroke-width="1.5"/>
<path id="Vector_2" d="M7.79184 12.6478C7.58242 12.648 7.38101 12.5673 7.22962 12.4226L4.81522 10.1061C4.73823 10.0323 4.67654 9.94399 4.63367 9.84632C4.5908 9.74865 4.56759 9.64349 4.56536 9.53684C4.56313 9.4302 4.58193 9.32416 4.62068 9.22478C4.65944 9.1254 4.71738 9.03463 4.79122 8.95765C4.86505 8.88066 4.95332 8.81898 5.05099 8.77611C5.14867 8.73324 5.25383 8.71002 5.36047 8.7078C5.46711 8.70557 5.57315 8.72436 5.67253 8.76312C5.77191 8.80187 5.86268 8.85981 5.93967 8.93365L7.73236 10.6531L12.0039 5.63813C12.0726 5.55534 12.1571 5.48701 12.2524 5.43711C12.3477 5.38721 12.452 5.35673 12.5591 5.34745C12.6663 5.33817 12.7743 5.35026 12.8767 5.38303C12.9792 5.41581 13.0741 5.4686 13.156 5.53835C13.2379 5.60811 13.3052 5.69343 13.3538 5.78937C13.4025 5.88532 13.4316 5.98997 13.4395 6.09726C13.4474 6.20454 13.4339 6.31233 13.3998 6.41436C13.3657 6.5164 13.3117 6.61064 13.2409 6.69163L8.41021 12.3621C8.33843 12.4464 8.25018 12.5151 8.15088 12.5641C8.05157 12.613 7.94332 12.6412 7.83275 12.6468C7.81918 12.6474 7.80562 12.6478 7.79184 12.6478Z" fill="#FD7400"/>
</g>
</svg>
